<svg height="1646" width="720" xmlns="http://www.w3.org/2000/svg">
<rect height="1646" fill="#555" width="720"></rect>
<text fill="#7f7" font-family="Courier New" font-size="12" xml:space="preserve">
<tspan x="10" y="26">12 megabytes installed</tspan>
<tspan x="10" y="42"></tspan>
<tspan x="10" y="58">node_modules</tspan>
<tspan x="10" y="74">└─┬ shipit-cli@3.0.0 </tspan>
<tspan x="10" y="90">  ├── bluebird@3.5.0 </tspan>
<tspan x="10" y="106">  ├─┬ chalk@1.1.3 </tspan>
<tspan x="10" y="122">  │ ├── ansi-styles@2.2.1 </tspan>
<tspan x="10" y="138">  │ ├── escape-string-regexp@1.0.5 </tspan>
<tspan x="10" y="154">  │ ├─┬ has-ansi@2.0.0 </tspan>
<tspan x="10" y="170">  │ │ └── ansi-regex@2.1.1 </tspan>
<tspan x="10" y="186">  │ ├── strip-ansi@3.0.1 </tspan>
<tspan x="10" y="202">  │ └── supports-color@2.0.0 </tspan>
<tspan x="10" y="218">  ├── interpret@1.0.2 </tspan>
<tspan x="10" y="234">  ├─┬ liftoff@2.3.0 </tspan>
<tspan x="10" y="250">  │ ├── extend@3.0.0 </tspan>
<tspan x="10" y="266">  │ ├─┬ findup-sync@0.4.3 </tspan>
<tspan x="10" y="282">  │ │ ├─┬ detect-file@0.1.0 </tspan>
<tspan x="10" y="298">  │ │ │ └── fs-exists-sync@0.1.0 </tspan>
<tspan x="10" y="314">  │ │ ├─┬ is-glob@2.0.1 </tspan>
<tspan x="10" y="330">  │ │ │ └── is-extglob@1.0.0 </tspan>
<tspan x="10" y="346">  │ │ ├─┬ micromatch@2.3.11 </tspan>
<tspan x="10" y="362">  │ │ │ ├─┬ arr-diff@2.0.0 </tspan>
<tspan x="10" y="378">  │ │ │ │ └── arr-flatten@1.0.3 </tspan>
<tspan x="10" y="394">  │ │ │ ├── array-unique@0.2.1 </tspan>
<tspan x="10" y="410">  │ │ │ ├─┬ braces@1.8.5 </tspan>
<tspan x="10" y="426">  │ │ │ │ ├─┬ expand-range@1.8.2 </tspan>
<tspan x="10" y="442">  │ │ │ │ │ └─┬ fill-range@2.2.3 </tspan>
<tspan x="10" y="458">  │ │ │ │ │   ├── is-number@2.1.0 </tspan>
<tspan x="10" y="474">  │ │ │ │ │   ├─┬ isobject@2.1.0 </tspan>
<tspan x="10" y="490">  │ │ │ │ │   │ └── isarray@1.0.0 </tspan>
<tspan x="10" y="506">  │ │ │ │ │   ├── randomatic@1.1.6 </tspan>
<tspan x="10" y="522">  │ │ │ │ │   └── repeat-string@1.6.1 </tspan>
<tspan x="10" y="538">  │ │ │ │ ├── preserve@0.2.0 </tspan>
<tspan x="10" y="554">  │ │ │ │ └── repeat-element@1.1.2 </tspan>
<tspan x="10" y="570">  │ │ │ ├─┬ expand-brackets@0.1.5 </tspan>
<tspan x="10" y="586">  │ │ │ │ └── is-posix-bracket@0.1.1 </tspan>
<tspan x="10" y="602">  │ │ │ ├── extglob@0.3.2 </tspan>
<tspan x="10" y="618">  │ │ │ ├── filename-regex@2.0.0 </tspan>
<tspan x="10" y="634">  │ │ │ ├─┬ kind-of@3.1.0 </tspan>
<tspan x="10" y="650">  │ │ │ │ └── is-buffer@1.1.5 </tspan>
<tspan x="10" y="666">  │ │ │ ├─┬ normalize-path@2.1.1 </tspan>
<tspan x="10" y="682">  │ │ │ │ └── remove-trailing-separator@1.0.1 </tspan>
<tspan x="10" y="698">  │ │ │ ├─┬ object.omit@2.0.1 </tspan>
<tspan x="10" y="714">  │ │ │ │ ├─┬ for-own@0.1.5 </tspan>
<tspan x="10" y="730">  │ │ │ │ │ └── for-in@1.0.2 </tspan>
<tspan x="10" y="746">  │ │ │ │ └── is-extendable@0.1.1 </tspan>
<tspan x="10" y="762">  │ │ │ ├─┬ parse-glob@3.0.4 </tspan>
<tspan x="10" y="778">  │ │ │ │ ├─┬ glob-base@0.3.0 </tspan>
<tspan x="10" y="794">  │ │ │ │ │ └── glob-parent@2.0.0 </tspan>
<tspan x="10" y="810">  │ │ │ │ └── is-dotfile@1.0.2 </tspan>
<tspan x="10" y="826">  │ │ │ └─┬ regex-cache@0.4.3 </tspan>
<tspan x="10" y="842">  │ │ │   ├── is-equal-shallow@0.1.3 </tspan>
<tspan x="10" y="858">  │ │ │   └── is-primitive@2.0.0 </tspan>
<tspan x="10" y="874">  │ │ └─┬ resolve-dir@0.1.1 </tspan>
<tspan x="10" y="890">  │ │   └─┬ global-modules@0.2.3 </tspan>
<tspan x="10" y="906">  │ │     ├─┬ global-prefix@0.1.5 </tspan>
<tspan x="10" y="922">  │ │     │ ├─┬ homedir-polyfill@1.0.1 </tspan>
<tspan x="10" y="938">  │ │     │ │ └── parse-passwd@1.0.0 </tspan>
<tspan x="10" y="954">  │ │     │ ├── ini@1.3.4 </tspan>
<tspan x="10" y="970">  │ │     │ └─┬ which@1.2.14 </tspan>
<tspan x="10" y="986">  │ │     │   └── isexe@2.0.0 </tspan>
<tspan x="10" y="1002">  │ │     └── is-windows@0.2.0 </tspan>
<tspan x="10" y="1018">  │ ├─┬ fined@1.0.2 </tspan>
<tspan x="10" y="1034">  │ │ ├─┬ expand-tilde@1.2.2 </tspan>
<tspan x="10" y="1050">  │ │ │ └── os-homedir@1.0.2 </tspan>
<tspan x="10" y="1066">  │ │ ├── lodash.assignwith@4.2.0 </tspan>
<tspan x="10" y="1082">  │ │ ├── lodash.isempty@4.4.0 </tspan>
<tspan x="10" y="1098">  │ │ ├── lodash.pick@4.4.0 </tspan>
<tspan x="10" y="1114">  │ │ └─┬ parse-filepath@1.0.1 </tspan>
<tspan x="10" y="1130">  │ │   ├─┬ is-absolute@0.2.6 </tspan>
<tspan x="10" y="1146">  │ │   │ └─┬ is-relative@0.2.1 </tspan>
<tspan x="10" y="1162">  │ │   │   └─┬ is-unc-path@0.1.2 </tspan>
<tspan x="10" y="1178">  │ │   │     └── unc-path-regex@0.1.2 </tspan>
<tspan x="10" y="1194">  │ │   ├── map-cache@0.2.2 </tspan>
<tspan x="10" y="1210">  │ │   └─┬ path-root@0.1.1 </tspan>
<tspan x="10" y="1226">  │ │     └── path-root-regex@0.1.2 </tspan>
<tspan x="10" y="1242">  │ ├── flagged-respawn@0.3.2 </tspan>
<tspan x="10" y="1258">  │ ├── lodash.isplainobject@4.0.6 </tspan>
<tspan x="10" y="1274">  │ ├── lodash.isstring@4.0.1 </tspan>
<tspan x="10" y="1290">  │ ├── lodash.mapvalues@4.6.0 </tspan>
<tspan x="10" y="1306">  │ ├── rechoir@0.6.2 </tspan>
<tspan x="10" y="1322">  │ └─┬ resolve@1.3.2 </tspan>
<tspan x="10" y="1338">  │   └── path-parse@1.0.5 </tspan>
<tspan x="10" y="1354">  ├── lodash@4.17.4 </tspan>
<tspan x="10" y="1370">  ├── minimist@1.2.0 </tspan>
<tspan x="10" y="1386">  ├─┬ orchestrator@0.3.8 </tspan>
<tspan x="10" y="1402">  │ ├─┬ end-of-stream@0.1.5 </tspan>
<tspan x="10" y="1418">  │ │ └─┬ once@1.3.3 </tspan>
<tspan x="10" y="1434">  │ │   └── wrappy@1.0.2 </tspan>
<tspan x="10" y="1450">  │ ├── sequencify@0.0.7 </tspan>
<tspan x="10" y="1466">  │ └── stream-consume@0.1.0 </tspan>
<tspan x="10" y="1482">  ├── pretty-hrtime@1.0.3 </tspan>
<tspan x="10" y="1498">  ├─┬ ssh-pool@1.4.1 </tspan>
<tspan x="10" y="1514">  │ ├── bluebird@2.11.0 </tspan>
<tspan x="10" y="1530">  │ ├── lodash@3.10.1 </tspan>
<tspan x="10" y="1546">  │ ├── sprintf-js@1.0.3 </tspan>
<tspan x="10" y="1562">  │ └── whereis@0.4.0 </tspan>
<tspan x="10" y="1578">  ├─┬ stream-line-wrapper@0.1.1 </tspan>
<tspan x="10" y="1594">  │ └── async@0.2.10 </tspan>
<tspan x="10" y="1610">  └─┬ v8flags@2.0.12 </tspan>
<tspan x="10" y="1626">    └── user-home@1.1.1</tspan>
</text>
</svg>
